<svg width="2150" height="451" viewBox="0 0 2150 451" fill="none" xmlns="http://www.w3.org/2000/svg">
<path d="M432.364 93.0648C363.982 47.8826 273.093 37.5981 197.591 51.2248C113.12 -30.2508 18.4622 7.2248 0 17.9981C0 17.9981 64.96 73.1981 54.4089 121.545C-22.4978 199.945 14.0622 287.234 54.4089 328.451C64.96 376.798 0 431.998 0 431.998C18.2844 442.807 112.684 480.167 197.591 399.109C272.924 412.647 363.813 402.451 432.364 357.189C538.373 289.509 538.72 161.091 432.364 93.0559V93.0648ZM261.493 356.754C235.057 356.83 208.725 353.432 183.173 346.647L165.6 363.616C155.839 373.082 144.909 381.264 133.076 387.963C118.719 395.191 103.122 399.634 87.1111 401.056C88 399.474 88.7822 397.891 89.5733 396.398C107.156 363.806 111.896 334.564 103.796 308.674C74.88 285.909 57.5733 256.816 57.5733 225.003C57.5733 152.114 148.898 93.0648 261.493 93.0648C374.089 93.0648 465.413 152.114 465.413 225.003C465.413 297.891 374.089 356.754 261.493 356.754ZM163.662 256.38C155.589 256.494 147.8 253.404 142.002 247.785C136.204 242.167 132.869 234.479 132.729 226.407C132.107 186.06 193.022 185.18 193.636 225.438V225.891C193.673 229.863 192.927 233.804 191.441 237.487C189.954 241.17 187.756 244.525 184.973 247.358C182.189 250.191 178.874 252.448 175.217 253.999C171.561 255.55 167.634 256.366 163.662 256.398V256.38ZM229.236 226.407C228.533 186.06 289.449 185.091 290.151 225.349V225.891C290.498 265.963 229.938 266.398 229.236 226.407ZM356.684 256.38C348.611 256.494 340.821 253.404 335.021 247.786C329.222 242.168 325.885 234.48 325.742 226.407C325.129 186.06 386.044 185.18 386.658 225.438V225.891C386.708 229.867 385.971 233.813 384.49 237.502C383.008 241.191 380.81 244.551 378.024 247.387C375.238 250.222 371.918 252.479 368.255 254.025C364.593 255.572 360.66 256.379 356.684 256.398V256.38Z" fill="#6F00FF"/>
<g filter="url(#filter0_d)">
<path d="M722.262 310.856V357.162H562.001V117.682H615.999V310.856H722.262Z" fill="#1C1C1C"/>
<path d="M805.154 357.162H753.58V175.392H805.154V357.162ZM810 122.866C810 132.311 806.885 139.799 800.654 145.328C794.655 150.627 787.501 153.276 779.194 153.276C770.886 153.276 763.618 150.627 757.387 145.328C751.387 139.799 748.388 132.311 748.388 122.866C748.388 113.42 751.387 106.048 757.387 100.749C763.618 95.2202 770.886 92.4557 779.194 92.4557C787.501 92.4557 794.655 95.2202 800.654 100.749C806.885 106.048 810 113.42 810 122.866Z" fill="#1C1C1C"/>
<path d="M897.724 357.162C885.955 334.124 873.956 307.17 861.726 276.299C849.726 245.428 838.304 211.792 827.458 175.392H882.148C884.455 184.377 887.109 194.168 890.109 204.766C893.339 215.133 896.57 225.73 899.801 236.558C903.262 247.156 906.608 257.523 909.839 267.66C913.3 277.796 916.646 287.011 919.877 295.305C922.876 287.011 926.107 277.796 929.568 267.66C933.03 257.523 936.376 247.156 939.606 236.558C943.068 225.73 946.298 215.133 949.298 204.766C952.529 194.168 955.298 184.377 957.605 175.392H1010.91C1000.06 211.792 988.527 245.428 976.297 276.299C964.297 307.17 952.413 334.124 940.645 357.162H897.724Z" fill="#1C1C1C"/>
<path d="M1025.15 267.66C1025.15 251.533 1027.57 237.48 1032.42 225.5C1037.49 213.29 1044.07 203.153 1052.15 195.09C1060.22 187.027 1069.45 180.922 1079.84 176.775C1090.45 172.628 1101.3 170.554 1112.37 170.554C1138.22 170.554 1158.64 178.503 1173.64 194.399C1188.64 210.065 1196.14 233.218 1196.14 263.858C1196.14 266.853 1196.02 270.194 1195.79 273.88C1195.56 277.335 1195.33 280.446 1195.1 283.21H1078.11C1079.26 293.808 1084.22 302.216 1092.99 308.437C1101.76 314.657 1113.53 317.767 1128.3 317.767C1137.76 317.767 1146.99 316.961 1155.99 315.348C1165.22 313.505 1172.72 311.316 1178.49 308.782L1185.41 350.596C1182.64 351.978 1178.95 353.361 1174.33 354.743C1169.72 356.125 1164.53 357.277 1158.76 358.199C1153.22 359.351 1147.22 360.272 1140.76 360.963C1134.3 361.654 1127.84 362 1121.37 362C1104.99 362 1090.68 359.581 1078.45 354.743C1066.45 349.905 1056.42 343.339 1048.34 335.046C1040.49 326.522 1034.61 316.5 1030.69 304.981C1026.99 293.462 1025.15 281.022 1025.15 267.66ZM1146.3 247.962C1146.07 243.585 1145.26 239.323 1143.87 235.176C1142.72 231.029 1140.76 227.343 1137.99 224.118C1135.45 220.892 1132.1 218.243 1127.95 216.17C1124.03 214.096 1119.07 213.059 1113.07 213.059C1107.3 213.059 1102.34 214.096 1098.18 216.17C1094.03 218.013 1090.57 220.547 1087.8 223.772C1085.03 226.997 1082.84 230.799 1081.22 235.176C1079.84 239.323 1078.8 243.585 1078.11 247.962H1146.3Z" fill="#1C1C1C"/>
<path d="M1220.36 230.684H1320.74V277.335H1220.36V230.684Z" fill="#1C1C1C"/>
<path d="M1473.17 362C1434.17 362 1404.41 351.172 1383.87 329.516C1363.56 307.861 1353.41 277.105 1353.41 237.249C1353.41 217.437 1356.52 199.813 1362.76 184.377C1368.99 168.711 1377.52 155.58 1388.37 144.982C1399.22 134.154 1412.14 125.976 1427.14 120.447C1442.14 114.918 1458.4 112.153 1475.94 112.153C1486.1 112.153 1495.33 112.959 1503.63 114.572C1511.94 115.954 1519.21 117.682 1525.44 119.756C1531.67 121.599 1536.86 123.557 1541.02 125.63C1545.17 127.704 1548.17 129.316 1550.02 130.468L1534.44 174.01C1527.05 170.094 1518.4 166.753 1508.48 163.989C1498.79 161.224 1487.71 159.842 1475.25 159.842C1466.94 159.842 1458.75 161.224 1450.67 163.989C1442.83 166.753 1435.79 171.246 1429.56 177.466C1423.56 183.456 1418.71 191.289 1415.02 200.965C1411.33 210.641 1409.48 222.39 1409.48 236.213C1409.48 247.271 1410.64 257.638 1412.95 267.314C1415.48 276.76 1419.41 284.938 1424.71 291.849C1430.25 298.761 1437.41 304.29 1446.17 308.437C1454.94 312.353 1465.56 314.311 1478.02 314.311C1485.86 314.311 1492.9 313.851 1499.13 312.929C1505.36 312.008 1510.9 310.971 1515.75 309.819C1520.59 308.437 1524.86 306.939 1528.55 305.327C1532.25 303.714 1535.59 302.216 1538.59 300.834L1553.48 344.03C1545.86 348.638 1535.13 352.785 1521.29 356.471C1507.44 360.157 1491.4 362 1473.17 362Z" fill="#1C1C1C"/>
<path d="M1584.78 357.162V97.2937L1636.35 89V176.084C1639.82 174.932 1644.2 173.895 1649.51 172.973C1655.05 171.822 1660.35 171.246 1665.43 171.246C1680.2 171.246 1692.43 173.319 1702.12 177.466C1712.04 181.382 1719.89 187.027 1725.66 194.399C1731.66 201.771 1735.81 210.525 1738.12 220.662C1740.66 230.799 1741.93 242.087 1741.93 254.528V357.162H1690.35V260.748C1690.35 244.161 1688.16 232.411 1683.78 225.5C1679.62 218.589 1671.78 215.133 1660.24 215.133C1655.62 215.133 1651.24 215.594 1647.08 216.515C1643.16 217.206 1639.59 218.013 1636.35 218.934V357.162H1584.78Z" fill="#1C1C1C"/>
<path d="M1858.18 321.223C1863.26 321.223 1868.1 321.108 1872.72 320.877C1877.34 320.647 1881.03 320.301 1883.8 319.841V280.791C1881.72 280.33 1878.6 279.87 1874.45 279.409C1870.3 278.948 1866.49 278.718 1863.03 278.718C1858.18 278.718 1853.57 279.063 1849.18 279.754C1845.03 280.215 1841.34 281.252 1838.11 282.865C1834.88 284.477 1832.34 286.666 1830.49 289.43C1828.65 292.195 1827.72 295.651 1827.72 299.797C1827.72 307.861 1830.38 313.505 1835.68 316.73C1841.22 319.725 1848.72 321.223 1858.18 321.223ZM1854.03 170.554C1869.26 170.554 1881.95 172.282 1892.1 175.738C1902.26 179.194 1910.33 184.147 1916.33 190.597C1922.56 197.048 1926.95 204.881 1929.49 214.096C1932.02 223.311 1933.29 233.563 1933.29 244.852V351.978C1925.91 353.591 1915.64 355.434 1902.49 357.508C1889.33 359.811 1873.41 360.963 1854.72 360.963C1842.95 360.963 1832.22 359.927 1822.53 357.853C1813.07 355.78 1804.88 352.439 1797.95 347.832C1791.03 342.994 1785.72 336.773 1782.03 329.171C1778.34 321.568 1776.49 312.238 1776.49 301.18C1776.49 290.582 1778.57 281.597 1782.72 274.225C1787.11 266.853 1792.88 260.978 1800.03 256.601C1807.18 252.224 1815.38 249.114 1824.61 247.271C1833.84 245.197 1843.41 244.161 1853.34 244.161C1860.03 244.161 1865.91 244.506 1870.99 245.197C1876.3 245.658 1880.57 246.349 1883.8 247.271V242.433C1883.8 233.678 1881.14 226.652 1875.84 221.353C1870.53 216.054 1861.3 213.405 1848.14 213.405C1839.38 213.405 1830.72 214.096 1822.18 215.478C1813.65 216.63 1806.26 218.358 1800.03 220.662L1793.45 179.194C1796.45 178.272 1800.15 177.351 1804.53 176.429C1809.15 175.277 1814.11 174.356 1819.41 173.665C1824.72 172.743 1830.26 172.052 1836.03 171.591C1842.03 170.9 1848.03 170.554 1854.03 170.554Z" fill="#1C1C1C"/>
<path d="M1978.2 130.123L2029.77 121.829V175.392H2091.73V218.243H2029.77V282.173C2029.77 293.001 2031.62 301.641 2035.31 308.091C2039.24 314.542 2046.97 317.767 2058.5 317.767C2064.04 317.767 2069.7 317.306 2075.46 316.385C2081.46 315.233 2086.89 313.735 2091.73 311.892L2099 351.978C2092.77 354.513 2085.85 356.701 2078.23 358.544C2070.62 360.387 2061.27 361.309 2050.2 361.309C2036.12 361.309 2024.47 359.466 2015.24 355.78C2006.01 351.863 1998.62 346.565 1993.08 339.884C1987.55 332.972 1983.62 324.678 1981.31 315.003C1979.24 305.327 1978.2 294.614 1978.2 282.865V130.123Z" fill="#1C1C1C"/>
</g>
<defs>
<filter id="filter0_d" x="512.001" y="39" width="1637" height="373" filterUnits="userSpaceOnUse" color-interpolation-filters="sRGB">
<feFlood flood-opacity="0" result="BackgroundImageFix"/>
<feColorMatrix in="SourceAlpha" type="matrix" values="0 0 0 0 0 0 0 0 0 0 0 0 0 0 0 0 0 0 127 0"/>
<feOffset/>
<feGaussianBlur stdDeviation="25"/>
<feColorMatrix type="matrix" values="0 0 0 0 0 0 0 0 0 0 0 0 0 0 0 0 0 0 0.25 0"/>
<feBlend mode="normal" in2="BackgroundImageFix" result="effect1_dropShadow"/>
<feBlend mode="normal" in="SourceGraphic" in2="effect1_dropShadow" result="shape"/>
</filter>
</defs>
</svg>
